<svg xmlns="http://www.w3.org/2000/svg" viewBox="0 0 425 425" xml:space="preserve"><linearGradient id="a" gradientUnits="userSpaceOnUse" x1="-820.604" y1="752.996" x2="1187.397" y2="-339.002"><stop offset="0" style="stop-color:#00c9ff"/><stop offset="1" style="stop-color:#3b72de"/></linearGradient><path fill="url(#a)" d="M328.529 91.344H96.471a4.88 4.88 0 0 0-4.881 4.881v183.954a4.881 4.881 0 0 0 4.881 4.881h17.738a4.881 4.881 0 0 0 0-9.762h-12.857V101.106h222.295v174.191H250.96a4.881 4.881 0 0 0 0 9.762h18.728l-19.603 33.953-23.83-41.275a4.884 4.884 0 0 0-4.229-2.44H164.88a4.881 4.881 0 0 0 0 9.762h54.33l26.649 46.156a4.883 4.883 0 0 0 8.455 0l26.648-46.156h47.568a4.881 4.881 0 0 0 4.881-4.881V96.225a4.883 4.883 0 0 0-4.882-4.881z"/><linearGradient id="b" gradientUnits="userSpaceOnUse" x1="-799.897" y1="791.069" x2="1208.101" y2="-300.928"><stop offset="0" style="stop-color:#00c9ff"/><stop offset="1" style="stop-color:#3b72de"/></linearGradient><path fill="url(#b)" d="M149.283 275.297h-19.478a4.881 4.881 0 0 0 0 9.762h19.478a4.881 4.881 0 1 0 0-9.762z"/><g><linearGradient id="c" gradientUnits="userSpaceOnUse" x1="-850.125" y1="698.715" x2="1157.878" y2="-393.285"><stop offset="0" style="stop-color:#00c9ff"/><stop offset="1" style="stop-color:#3b72de"/></linearGradient><path fill="url(#c)" d="M206.83 147.094h-67.285a4.882 4.882 0 0 1 0-9.762h67.285a4.88 4.88 0 1 1 0 9.762z"/><linearGradient id="d" gradientUnits="userSpaceOnUse" x1="-827.388" y1="740.522" x2="1180.616" y2="-351.478"><stop offset="0" style="stop-color:#00c9ff"/><stop offset="1" style="stop-color:#3b72de"/></linearGradient><path fill="url(#d)" d="M236.928 193.083h-97.384a4.881 4.881 0 0 1 0-9.762h97.384a4.88 4.88 0 1 1 0 9.762z"/><linearGradient id="e" gradientUnits="userSpaceOnUse" x1="-806.24" y1="779.409" x2="1201.765" y2="-312.592"><stop offset="0" style="stop-color:#00c9ff"/><stop offset="1" style="stop-color:#3b72de"/></linearGradient><path fill="url(#e)" d="M253.105 239.071H139.544a4.881 4.881 0 0 1 0-9.762h113.561a4.882 4.882 0 0 1 0 9.762z"/><g><linearGradient id="f" gradientUnits="userSpaceOnUse" x1="-809.705" y1="773.045" x2="1198.303" y2="-318.958"><stop offset="0" style="stop-color:#00c9ff"/><stop offset="1" style="stop-color:#3b72de"/></linearGradient><path fill="url(#f)" d="M269.281 193.083h-7.116a4.881 4.881 0 0 1 0-9.762h7.116a4.881 4.881 0 0 1 0 9.762z"/></g><g><linearGradient id="g" gradientUnits="userSpaceOnUse" x1="-786.703" y1="815.321" x2="1221.288" y2="-276.672"><stop offset="0" style="stop-color:#00c9ff"/><stop offset="1" style="stop-color:#3b72de"/></linearGradient><path fill="url(#g)" d="M285.457 239.071h-7.116a4.881 4.881 0 0 1 0-9.762h7.116a4.88 4.88 0 0 1 0 9.762z"/></g><g><linearGradient id="h" gradientUnits="userSpaceOnUse" x1="-835.859" y1="724.911" x2="1172.115" y2="-367.073"><stop offset="0" style="stop-color:#00c9ff"/><stop offset="1" style="stop-color:#3b72de"/></linearGradient><path fill="url(#h)" d="M239.182 147.094h-7.116a4.882 4.882 0 0 1 0-9.762h7.116a4.882 4.882 0 0 1 0 9.762z"/></g></g></svg>